<?xml version="1.0" encoding="utf-8"?>
<!-- Uploaded to: SVG Repo, www.svgrepo.com, Generator: SVG Repo Mixer Tools -->
<svg xmlns="http://www.w3.org/2000/svg"><path d="M511.3 511.9m-384 0a384 384 0 1 0 768 0 384 384 0 1 0-768 0Z" fill="#9DC6AF" /><path d="M511.3 908.9c-53.6 0-105.6-10.5-154.5-31.2-47.3-20-89.7-48.6-126.2-85.1s-65.1-78.9-85.1-126.2c-20.7-48.9-31.2-100.9-31.2-154.5 0-53.6 10.5-105.6 31.2-154.5 20-47.3 48.6-89.7 85.1-126.2s78.9-65.1 126.2-85.1c48.9-20.7 100.9-31.2 154.5-31.2 53.6 0 105.6 10.5 154.5 31.2 47.3 20 89.7 48.6 126.2 85.1s65.1 78.9 85.1 126.2c20.7 48.9 31.2 100.9 31.2 154.5 0 53.6-10.5 105.6-31.2 154.5-20 47.3-48.6 89.7-85.1 126.2s-78.9 65.1-126.2 85.1c-48.9 20.7-100.9 31.2-154.5 31.2z m0-767.9c-50.1 0-98.7 9.8-144.4 29.1-44.2 18.7-83.8 45.4-117.9 79.5s-60.8 73.7-79.5 117.9c-19.3 45.7-29.1 94.3-29.1 144.4s9.8 98.7 29.1 144.4c18.7 44.2 45.4 83.8 79.5 117.9 34.1 34.1 73.7 60.8 117.9 79.5 45.7 19.3 94.3 29.1 144.4 29.1s98.7-9.8 144.4-29.1c44.2-18.7 83.8-45.4 117.9-79.5 34.1-34.1 60.8-73.7 79.5-117.9 19.3-45.7 29.1-94.3 29.1-144.4s-9.8-98.7-29.1-144.4c-18.7-44.2-45.4-83.8-79.5-117.9-34.1-34.1-73.7-60.8-117.9-79.5C610 150.8 561.4 141 511.3 141z" fill="#191919" /><path d="M343.7 462.2m-38.1 0a38.1 38.1 0 1 0 76.2 0 38.1 38.1 0 1 0-76.2 0Z" fill="#141414" /><path d="M719.1 494.3c-7.2 0-13-5.8-13-13 0-13.9-10.1-25.2-22.6-25.2-12.5 0-22.6 11.3-22.6 25.2 0 7.2-5.8 13-13 13s-13-5.8-13-13c0-28.2 21.8-51.2 48.6-51.2s48.6 23 48.6 51.2c0 7.2-5.8 13-13 13z" fill="#141414" /><path d="M418.1 549.7c0 49.2 42.4 89.4 94.2 89.4 51.8 0 94.2-40.2 94.2-89.4v-22.8H418.1v22.8z" fill="#4F423B" /><path d="M512.3 652.1c-59.1 0-107.2-45.9-107.2-102.4v-35.8h214.5v35.8c0 56.5-48.1 102.4-107.3 102.4z m-81.2-112.2v9.8c0 42.1 36.4 76.4 81.2 76.4s81.2-34.3 81.2-76.4v-9.8H431.1z" fill="#141414" /><path d="M456.5 595.5a55.8 22.1 0 1 0 111.6 0 55.8 22.1 0 1 0-111.6 0Z" fill="#D39E33" /><path d="M309.8 613.4m-33.9 0a33.9 33.9 0 1 0 67.8 0 33.9 33.9 0 1 0-67.8 0Z" fill="#F2F9F4" /><path d="M243.2 413.9c-1.6 0-3.1-0.3-4.7-0.9-6.7-2.6-10-10.1-7.5-16.8 20.6-53.5 56.4-99.1 103.5-132.1 48.2-33.7 105-51.5 164-51.5 47.5 0 94.6 11.9 136.2 34.3 6.3 3.4 8.7 11.3 5.3 17.6-3.4 6.3-11.3 8.7-17.6 5.3-37.8-20.4-80.6-31.2-123.8-31.2-53.7 0-105.3 16.2-149.1 46.9-42.9 30-75.5 71.5-94.2 120.1-2 5.1-6.9 8.3-12.1 8.3z" fill="#F2F9F4" /><path d="M277.7 777.1c-25.3 0-49.5-1.2-72.5-3.6C96.2 762 27.3 723.4 11.1 665c-8.1-29.2-2.5-60.8 16.6-94 17.2-29.8 44.9-60 82.4-89.8 7.8-6.2 19.1-4.9 25.3 2.9 6.2 7.8 4.9 19.1-2.9 25.3-34 27-58.7 53.8-73.6 79.6-14.1 24.4-18.5 46.8-13.1 66.4C57.6 698 117.1 728 209 737.7c99 10.5 223.3-3.1 350.2-38.2 126.9-35.1 240.5-87.4 320-147.2 73.9-55.6 109.5-111.9 97.7-154.5-10.6-38.3-58.9-66.2-136-78.7-9.8-1.6-16.5-10.8-14.9-20.6 1.6-9.8 10.8-16.5 20.6-14.9 43.7 7.1 79.8 19 107.3 35.4 30.6 18.2 50 41.5 57.7 69.3 16.2 58.4-23.2 126.9-110.7 192.9-83 62.5-201 116.9-332.1 153.2-102 28-202.7 42.7-291.1 42.7z" fill="#141414" /></svg>